<svg width="44" height="44" viewBox="0 0 44.2426 44.2426" fill="none" xmlns="http://www.w3.org/2000/svg" xmlns:xlink="http://www.w3.org/1999/xlink">
	<desc>
			Created with Pixso.
	</desc>
	<defs/>
	<path id="Icon" d="M20 6.24L6 6.24C4.93 6.24 3.92 6.66 3.17 7.41C2.42 8.16 2 9.18 2 10.24L2 38.24C2 39.3 2.42 40.32 3.17 41.07C3.92 41.82 4.93 42.24 6 42.24L34 42.24C35.06 42.24 36.07 41.82 36.82 41.07C37.57 40.32 38 39.3 38 38.24L38 24.24M38 2C39.12 2 40.2 2.44 41 3.24C41.79 4.03 42.24 5.11 42.24 6.24C42.24 7.36 41.79 8.44 41 9.24L22 28.24L14 30.24L16 22.24L35 3.24C35.79 2.44 36.87 2 38 2Z" stroke="#EBFFEE" stroke-opacity="1.000000" stroke-width="4.000000" stroke-linejoin="round" stroke-linecap="round"/>
</svg>
