<svg width="2046" height="1862" viewBox="0 0 2046 1862" fill="none" xmlns="http://www.w3.org/2000/svg">
<path d="M1205.3 1099.8C1509 1099.8 1755.2 853.601 1755.2 549.9C1755.2 246.199 1509 0 1205.3 0C901.597 0 655.398 246.199 655.398 549.9C655.398 853.601 901.597 1099.8 1205.3 1099.8Z" fill="#EB6044"/>
<path opacity="0.7" d="M846.9 1099.8C1150.6 1099.8 1396.8 853.601 1396.8 549.9C1396.8 246.199 1150.6 0 846.9 0C543.199 0 297 246.199 297 549.9C297 853.601 543.199 1099.8 846.9 1099.8Z" fill="black"/>
<path d="M1388.3 257.203V379.503H1208.5V842.603H1064.1V379.503H884.199V257.203H1388.3Z" fill="white"/>
<path d="M799.805 842.548L799.805 257.148H655.405L655.405 842.548H799.805Z" fill="white"/>
<path d="M0 1852.6V1378.4H51.1V1852.6H0Z" fill="#010000"/>
<path d="M295.1 1852.6H244V1430.5H104V1378.4H435.2V1430.5H295.1V1852.6Z" fill="#010000"/>
<path d="M588.102 1650.2H726.302V1701.6H588.102V1650.2Z" fill="#010000"/>
<path d="M971.1 1656.3V1852.6H920V1378.4H1028.6C1047 1378.4 1062.6 1379.2 1075.4 1380.7C1088.2 1382.2 1100 1384.7 1110.6 1388C1139.8 1397 1162.1 1412.3 1177.6 1433.9C1193 1455.5 1200.8 1482.5 1200.8 1514.9C1200.8 1534 1198.1 1551.2 1192.7 1566.3C1187.3 1581.4 1179.6 1594.5 1169.8 1605.6C1160 1616.7 1148.2 1625.8 1134.6 1632.9C1120.9 1640 1105.7 1645.2 1089 1648.5V1649.9L1213.1 1852.6H1162L1032.9 1656.3H971.1ZM971.1 1430.5V1604.2H1021.5C1037.2 1604.2 1050.5 1603.6 1061.6 1602.4C1072.7 1601.2 1082.6 1599.1 1091.4 1596C1109.2 1589.9 1122.8 1580.1 1132.4 1566.6C1142 1553.1 1146.8 1535.5 1146.8 1513.8C1146.6 1493.5 1142 1477.1 1133 1464.7C1124 1452.3 1111.6 1443.4 1095.7 1437.9C1088.2 1435.3 1079.2 1433.4 1068.8 1432.2C1058.4 1431 1045.1 1430.4 1029 1430.4H971.1V1430.5Z" fill="#010000"/>
<path d="M1448.9 1810.1C1464.1 1810.1 1477.7 1808.1 1489.5 1804.1C1501.3 1800.1 1511.6 1794.4 1520.4 1787.1C1529.2 1779.8 1536.5 1771 1542.3 1760.7C1548.1 1750.4 1552.6 1739 1555.8 1726.5C1557.9 1718.7 1559.3 1710 1560.2 1700.5C1561 1690.9 1561.5 1681.7 1561.5 1672.7V1378.4H1612.6V1671.2C1612.6 1682.3 1612.1 1693.9 1611 1705.9C1610 1717.9 1608.3 1729.2 1606 1739.6C1602 1757.1 1596.1 1773.3 1588.1 1788.2C1580.2 1803.1 1569.8 1816 1557.1 1826.8C1544.4 1837.7 1529.1 1846.2 1511.2 1852.3C1493.3 1858.4 1472.4 1861.5 1448.4 1861.5C1425.4 1861.5 1405.3 1858.7 1387.9 1853C1370.6 1847.3 1355.7 1839.5 1343.2 1829.4C1330.8 1819.4 1320.6 1807.4 1312.6 1793.6C1304.7 1779.8 1298.5 1764.7 1294.1 1748.4C1291 1736.6 1288.7 1723.9 1287.4 1710.5C1286 1697 1285.4 1683.9 1285.4 1671.2V1378.4H1336.5V1672.6C1336.5 1683.2 1337.2 1694.2 1338.5 1705.4C1339.9 1716.6 1342 1726.8 1344.9 1736.1C1352.2 1759 1364.4 1777.1 1381.4 1790.3C1398.4 1803.5 1420.9 1810.1 1448.9 1810.1Z" fill="#010000"/>
<path d="M1919.9 1642.8C1945.6 1684.6 1971 1727.6 1996 1771.8H1997.9C1995.2 1725.7 1993.8 1678.7 1993.8 1630.7V1378.4H2045.2V1852.6H1994.1L1829.6 1588.2C1801.2 1542.1 1775.8 1499.1 1753.5 1459.2H1751.6C1754.3 1502.4 1755.7 1552.9 1755.7 1610.5V1852.6H1704.6V1378.4H1755.4L1919.9 1642.8Z" fill="#010000"/>
</svg>
